<svg id="icon_app-04" viewBox="0 0 48 48">
<rect class="cls-1" width="48" height="48" rx="10" ry="10">
</rect>
<path fill="currentColor" class="cls-2" d="M15.25 13.9h4.87v.83h-4.87zm-6.82 7.42h11.69v.83H8.43zm0-2.47h11.69v.83H8.43zm6.82-2.47h4.87v.83h-4.87z">
</path>
<path fill="currentColor" class="cls-3" d="M16.18 29.08l-.18-.83H6.79V15.93h5.54v-5.49h9.44v17.81h-4l.17.83h4.6V9.6h-11L6 15.14v13.94zm-4.64-18.41v4.47H7z">
</path>
<path fill="currentColor" class="cls-2" d="M8.43 23.8h11.69v.83H8.43z">
</path>
<path fill="currentColor" class="cls-3" d="M15.44 29.68a2 2 0 012.08 1.54l.48-.1-1.21-5.71-1 .2.81 3.81z">
</path><path fill="currentColor" class="cls-3" d="M15.62 30.16a1.46 1.46 0 101.46 1.46 1.46 1.46 0 00-1.46-1.46z">
</path><path fill="currentColor" class="cls-3" d="M15 29.78l-1.2.26-.11-.48h-1l.55 2.58.47-.1A2 2 0 0115 29.78zm16.24 4.53L17.57 31.6A2 2 0 0117 33l13.88 5.29a2.44 2.44 0 01.4-4zm6.55-14.4A2.44 2.44 0 1040.52 22a2.45 2.45 0 00-2.73-2.09z">
</path><path fill="currentColor" class="cls-3" d="M42 21.82a3.9 3.9 0 00-7.54-.82 3.78 3.78 0 00-.2.77l-2.94 12.5a2.49 2.49 0 011.09-.27 2.43 2.43 0 012.43 2.43 2.71 2.71 0 01-.1.71l6.64-12.72a4.14 4.14 0 00.43-.9 4 4 0 00.19-1.7zm-1 .88a2.92 2.92 0 11-2.52-3.27A2.92 2.92 0 0141 22.7z">
</path><path fill="currentColor" class="cls-3" d="M32.41 34.5a2 2 0 101.94 2 2 2 0 00-1.94-2z">
</path></svg>