<svg id="icon_app-05" viewBox="0 0 48 48">
<rect class="cls-1" width="48" height="48" rx="10" ry="10">
</rect>
<path fill="currentColor" class="cls-2" d="M6.38 40.77h7.8V7.26h-7.8zm1.48-30.38h4.84v16.68H7.86zm2.42 22.68a2.44 2.44 0 11-2.44 2.44 2.45 2.45 0 012.44-2.44zm22.27-19.44l-.44 1.25 1.9-1.99 3.25 1.42 3.09-.81-1.97-1.85-3.72-1.01 3.64.27-4.61-3.4.04 4.11-.62-3.54h-1.82l-.98 2.16 2.24 3.39zm.15 8.25a2.85 2.85 0 00-2 3.14 4.73 4.73 0 003.74.33c2.3-.64 4.17-1.28 4.17-1.28s-3.56-2.84-5.91-2.19zm-.34 6.92a6.15 6.15 0 00-.95-2.48 2 2 0 00-1.91-.95 1.85 1.85 0 000 2.21c.8 1.2 2.86 1.22 2.86 1.22z">
</path>
<path fill="currentColor" class="cls-2" d="M39.85 14.43l-2.49.64-3.19-1.37-3.22 3 .93-2.8-2.29-3.49L31 7.23l-3.34 2.35v4.71l2 3.54-.24 2.38.25.09-.27 1.2a6.59 6.59 0 00-1-1.22 12.71 12.71 0 00-.62 3.11 1.51 1.51 0 00.86 1.49l-.87 3.9h.56l.85-3.73a2.38 2.38 0 00.82-1.89 2.16 2.16 0 00-.14-.83l.42-1.83.24.1 1.29-1.17 5 .63 2.85-2.23h2zm-8.96 15.6h-1.1l-1.13 2.77 3.41 7.94h1.59L29.5 32.8l1.39-2.77z">
</path>
<path fill="currentColor" class="cls-2" d="M28.27 30.03h-2.4v10.71h3.98l-2.37-7.94.79-2.77zM16.13 40.74h7.79V7.23h-7.79zm1.47-30.38h4.84V27H17.6zM20 33.05a2.44 2.44 0 11-2.43 2.43A2.43 2.43 0 0120 33.05z">
</path>
</svg>