<svg id="icon_app-11" viewBox="0 0 48 48">
<rect class="cls-1" width="48" height="48" rx="10" ry="10">
</rect>
<path fill="currentColor" class="cls-2" 
d="M12.61 8h18.82v6.29H37v9h.85v-10l-5.74-6.5H11.72v20.45h.89zm19.67.63l4.32 4.72h-4.32zm9.49 32.64l-2.5-2.66v-4h-13.6v-3.86H24.4l.87.59v3.29h-2.45v-3.29l.87-.59h-1.28v3.88H8.73v4l-2.5 2.65h4.85v-2.62h25.84v2.61zm-22.51-3.39H11v-1.05h8.29zm8.87 0h-8.28v-1.05h8.28zm.6 0v-1.05H37v1.05z">
</path>
<path fill="currentColor" class="cls-2" 
d="M32.84 22.78a2.94 2.94 0 00.94-2.28s0 .67-.75.19a3 3 0 00-1.75-.5c-.23 0-.12.77-.05 1.16a2.2 2.2 0 00-.73-1.1c0 .34-.11.21-.47.25s-.47.53-.47.53-.72-.19-1 .16.94 1 .94 1l-.86-.47s-.48-.34-.58.47c-.07.62-.36.67-.49.66l2.09.34s.5 2.4-.54 3.37A5.26 5.26 0 0028 27.84a3.45 3.45 0 001 4.41h-2.46l1.39 1.46h12.39l1.43-1.46-3.5-.06c2.47-.63 2.13-4.78 1.13-5.32s-1-.7-3-2.62-3.54-1.47-3.54-1.47zm-5.27.07zm-7.71 10.83l1.45-1.45h-4.37v-2.16c0-.8-.46-.61-.78-.77s-.51-.4 0-.74 0-.81-.12-.9a2.84 2.84 0 00-.85-.24 2 2 0 00-.92.22c-.54.2-.54.86-.18.86s.36.4.36.4.1.42-.46.42a.59.59 0 00-.6.55v2.36h-.75v-1.5c0-.63-.36-.48-.61-.61s-.41-.31 0-.57 0-.63-.09-.71a2.19 2.19 0 00-.67-.18 1.45 1.45 0 00-.72.17c-.43.15-.43.67-.14.67s.28.31.28.31.08.33-.36.33a.47.47 0 00-.47.44v1.65h-3.8l1.45 1.45z">
</path>
</svg>