<svg id="icon_app-13" viewBox="0 0 48 48">
<rect class="cls-1" width="48" height="48" rx="10" ry="10">
</rect>
<path fill="currentColor" class="cls-2" d="M9.8 21.91h3.31v9.53H9.8z">
</path>
<path fill="currentColor" class="cls-2" d="M7.91 14.23h6.78V8h10.59v13.36H26V7.17H13.77l-6.6 6v23.52h6.17v-.77H7.91zm5.94-5.92v5.14H8.13z">
</path>
<path fill="currentColor" class="cls-2" d="M18.39 9.95h3.41v21.49h-3.41z">
</path>
<path fill="currentColor" class="cls-2" 
d="M38.28 25.69v-.11a12.06 12.06 0 012.55.55v-4a15.18 15.18 0 00-2.63-.42c-.35 0-.64-.24-.55-1a22.4 22.4 0 00.28-3.08c0-.53-.91-1.06-.91-1.06s-1 .34-1 1.19.41 2.38.41 3.07-.16.78-.26.84A14 14 0 0027 25.45s-.3.15-.79-.41A20.38 20.38 0 0024.52 23a2.37 2.37 0 00-1.38-.24 1.43 1.43 0 00.17 1.53 14 14 0 002 1.42 1.67 1.67 0 01.59.89 15.18 15.18 0 00-4.11 9.4c-.18.1-.19.3-.72.26a21.57 21.57 0 00-2.37-.39 2.12 2.12 0 00-1.2.92s.49 1 1.35 1 1.71-.45 2.39-.45a2.24 2.24 0 01.53.15 15.21 15.21 0 00.49 3.33H26a12 12 0 01-.56-2.89h2.41s.4-.28.46-.57.63.29 1.09.29a.87.87 0 00.69-.51s.4.79.86.79H32a5.47 5.47 0 00.73 1.7l-.91.94a1.58 1.58 0 000 .3h9.07v-9.69l-.9.92a5.41 5.41 0 00-1.55-.62v-2.42a3.21 3.21 0 00-.57-.52c-.29-.17.4-.45.4-1a.88.88 0 00-.4-.74s.41-.14.41-1.11zM32 35.47h-2a2.85 2.85 0 00-.52.57c-.17.28-.45-.4-1-.4a.88.88 0 00-.74.4s-.18-.52-1.15-.52h-1.11a11.62 11.62 0 012.83-6.1l1.35 1.31a1.29 1.29 0 00.73-.08c.25-.16.25.65.57 1a.87.87 0 00.85.12s-.28.85 0 1.17l.84.81a5.35 5.35 0 00-.65 1.72zm4-5.42v1.51a5 5 0 00-1.52.61l-1.58-1.48a2.84 2.84 0 00-.77 0c-.32.08 0-.61-.4-1a.89.89 0 00-.81-.24s.24-.49-.45-1.17l-.41-.42a11.64 11.64 0 015.86-2.27v1.31s.28.4.57.46-.29.62-.29 1.08.52.69.52.69-.78.46-.78.92zM14.12 17.88h3.31v13.56h-3.31z">
</path>
</svg>