<svg id="icon_app-03" viewBox="0 0 48 48">
<rect class="cls-1" width="48" height="48" rx="10" ry="10">
</rect>
<path fill="currentColor" class="cls-2" d="M20.55 13.52H30.8V11.8H20.55l-3.13 2.31v1.68l3.13-2.27z">
</path>
<path fill="currentColor" class="cls-2" d="M20.55 16.13H30.8V14.4H20.55l-3.18 2.12v1.69l3.18-2.08z">
</path>
<path fill="currentColor" class="cls-2" d="M20.55 18.73H30.8V17H20.63l-3.3 2.03v1.69l3.22-1.99zm0-7.72H30.8V9.29H20.55l-3.13 2.31v1.68l3.13-2.3v.03z">
</path>
<path fill="currentColor" class="cls-2" d="M40.11 19.7V7h-2.83v12.7H35.5V7h-2.83v12.7H20.78l-5.4 3.3v-.19s0-5.54-2.33-6.5-4.33 3.73-4.33 3.73l-1.35-.64-.23.44 1.37.66s-1.87 3.92-.05 5.5a2 2 0 001.73.15L6 28.65V41h36V19.7zM8.75 25.65c-1.58-1.07.18-4.95.18-4.95L12 22.17l.23-.45-3.1-1.47s2.15-4.3 3.94-3.46-.33 5.28-.33 5.28-2.41 4.65-3.99 3.58zm.65 1.57l1.52-.87v3L9.4 30zm0 4.35l1.52-.57v3l-1.52.42zm-1.48-3.5l.92-.52v2.72l-.92.43zm0 4.08l.92-.36v2.73l-.92.26zM7 28.62l.59-.34v2.58l-.59.27zm0 3.91l.59-.23v2.58L7 35zM6.25 29l.37-.21v2.47l-.37.17zm0 3.78l.37-.14v2.47l-.37.1zm0 2.69L10 34.44h4.22v.41H10l-3.75 1zm.4 3.3h-.37v-2.36l.37-.08zm4.53.92h-3v.48h3v.47H7v-4.52h.08l2.29 3.17h1.8zm3 1h-2.72v-5.58h2.74zm0-7.68l-2.57.71V30.7l2.57-1zm0-5.21L11.63 29v-3l2.57-1.47zm5.37 9.61l-4.55.51v-3.44l4.58-1zm0-5.88L15 32.82v-3.44l4.58-1.79zm0-6.18L15 27.47V24l4.58-2.62zM36.78 22a1.62 1.62 0 11-1.62 1.62A1.62 1.62 0 0136.78 22zm-6.61 7.9h-8.59v-8.68h8.59zm9.88 2.05a.65.65 0 01-1.3 0V28h-.29v11.82a.65.65 0 01-1.3 0v-7.11h-.76v7.11a.65.65 0 01-1.3 0V27.25L31 23.32a.65.65 0 010-.92.66.66 0 01.92 0l3.35 3.22h3.63a1.14 1.14 0 011.15 1.14z">
</path>
<path fill="currentColor" class="cls-2" d="M21.99 29.43l2.63-1.85 1.41 1.61 3.81-3.18v-.37l-3.81 3.15-1.36-1.61-2.15 1.46 2.45-3.35 1.34 1.26 3.48-3.53v-1.31l-3.53 3.71-1.36-1.31-2.93 3.87v1.42l.02-.03v.06z">
</path>
</svg>