<svg id="icon_app-08" viewBox="0 0 48 48">
<rect class="cls-1" width="48" height="48" rx="10" ry="10">
</rect>
<path fill="currentColor" class="cls-2" d="M32.92 36.66h1.41v1.41h-1.41zm0-2.11h1.41v1.41h-1.41zm-1.87-2.12h1.41v1.41h-1.41zm-8.93 4.23h7.52v1.41h-7.52zm8.93-2.11h1.41v1.41h-1.41zm1.87-2.12h1.41v1.41h-1.41zm-1.87 4.23h1.41v1.41h-1.41zm3.75 0h1.41v1.41H34.8zm-13.62-9.63h16.91v4.7H21.18z">
</path>
<path fill="currentColor" class="cls-2" d="M40 7.3h-4.7v5.64h-5.66v5.63H24v5.64h-5.64v5.64h-5.63v5.63H7.09v5.64h33.82V7.3zm-1 31.94H20.24V26.09H39z">
</path>
<path fill="currentColor" class="cls-2" d="M36.68 36h1.41v-3.57h-1.41zm0 .66h1.41v1.41h-1.41zm-1.88-4.23h1.41v1.41H34.8zm0 2.12h1.41v1.41H34.8zM15.08 11.39a2.26 2.26 0 10-2.26-2.26 2.26 2.26 0 002.26 2.26zm-2.92 9.49v-7h.57v15.5h2.06v-8.5h.57v8.45h2.06v-15.5H18v7h1.78v-7.66a1.68 1.68 0 00-1.67-1.69h-6.06a1.68 1.68 0 00-1.67 1.69v7.71h1.78z">
</path>
</svg>