<?xml version="1.0" encoding="UTF-8" standalone="no"?><!-- Generator: Gravit.io --><svg xmlns="http://www.w3.org/2000/svg" xmlns:xlink="http://www.w3.org/1999/xlink" style="isolation:isolate" viewBox="0 0 144 70" width="144pt" height="70pt"><defs><clipPath id="_clipPath_HdMpxybrnIa2PwbG8gYKIB9su3hMfu49"><rect width="144" height="70"/></clipPath></defs><g clip-path="url(#_clipPath_HdMpxybrnIa2PwbG8gYKIB9su3hMfu49)"><path d=" M 74.532 60.688 C 71.757 60.503 68.556 60.016 66.031 59.286 C 65.558 59.149 63.6 58.43 63.102 58.201 C 54.313 54.133 48.19 45.252 48.19 34.949 C 48.19 20.817 59.695 9.306 73.847 9.306 C 87.873 9.306 99.301 20.62 99.497 34.593 L 108.767 34.593 C 108.57 15.516 92.986 0.055 73.847 0.055 C 54.594 0.055 38.923 15.705 38.923 34.949 C 38.923 48.215 46.389 59.754 57.322 65.649 C 59.295 66.692 62.129 67.767 63.09 68.062 C 66.207 68.989 70.032 69.605 73.436 69.863 C 74.592 69.95 78.629 69.996 79.806 70 L 143.636 70 L 143.636 60.774 L 79.913 60.774 C 79.065 60.774 75.362 60.742 74.532 60.688 Z  M 79.913 46.202 C 79.239 46.202 75.714 46.179 75.062 46.124 C 73.959 46.031 72.36 45.866 71.332 45.631 C 70.171 45.32 69.081 44.91 68.59 44.64 C 65.147 42.779 62.8 39.14 62.8 34.949 C 62.8 28.851 67.742 23.906 73.847 23.906 C 79.824 23.906 84.683 28.657 84.878 34.593 L 93.784 34.593 C 93.596 23.748 84.75 15.009 73.847 15.009 C 62.823 15.009 53.888 23.935 53.888 34.949 C 53.888 42.715 58.343 49.423 64.831 52.708 C 65.83 53.293 67.708 53.905 68.243 54.044 C 70.075 54.526 72.536 54.854 74.532 55.001 C 75.27 55.062 78.885 55.09 79.648 55.094 L 79.648 55.108 L 143.634 55.108 L 143.634 46.202 L 79.913 46.202 Z  M 33.211 69.966 L 23.88 69.966 L 23.88 9.326 L 10.245 9.326 L 10.245 0 L 33.211 0 L 33.211 69.966 Z  M 0 13.986 L 0 22.954 L 10.245 22.954 L 10.245 69.966 L 19.21 69.966 L 19.21 13.986 L 0 13.986 Z " /></g></svg>