<svg width="93" height="96" viewBox="0 0 93 96" fill="none" xmlns="http://www.w3.org/2000/svg">
<path d="M42.5588 0C20.9389 0 0.959509 12.8378 4.71629 43.3834C4.04696 43.893 3.40084 44.4394 2.90174 45.1151C0.955639 47.7365 0 51.1445 0 54.8071C0 59.4039 2.83983 62.9411 5.80348 65.5367C7.97011 67.4382 10.187 68.7637 12.6941 69.4615C14.6673 75.5167 18.3003 80.5381 22.6103 83.9977C22.9938 84.3442 23.4475 84.6122 23.9436 84.785C24.4396 84.9579 24.9675 85.032 25.4947 85.0028C26.0219 84.9736 26.5373 84.8417 27.0091 84.6153C27.4808 84.3889 27.899 84.0726 28.2379 83.6861C28.5768 83.2996 28.8292 82.851 28.9795 82.3679C29.1298 81.8848 29.175 81.3774 29.1121 80.877C29.0492 80.3767 28.8796 79.8939 28.6138 79.4584C28.348 79.0229 27.9916 78.644 27.5665 78.3449C23.6743 75.2176 20.4205 71.0418 19.225 65.6511C19.0335 64.8369 18.5586 64.1086 17.8778 63.5849C17.197 63.0613 16.3504 62.7731 15.4759 62.7675C15.9518 62.7675 12.9766 61.8445 11.0034 60.1128C9.03021 58.3849 7.73797 56.2175 7.73797 54.8071C7.73797 53.0939 8.16743 51.6614 8.70522 50.5389C9.2307 51.1082 9.92718 51.5091 10.6999 51.6873C11.4726 51.8654 12.2841 51.8121 13.024 51.5345C13.7638 51.2569 14.3961 50.7686 14.8348 50.136C15.2735 49.5033 15.4974 48.7571 15.4759 47.9987V44.8825C15.4816 44.7668 15.4816 44.651 15.4759 44.5354C15.6307 41.9029 15.9944 39.4845 16.5631 37.2691C21.8985 35.519 26.34 38.3583 30.9519 25.3839C37.6839 44.4837 55.1176 33.5585 67.1037 33.0009C68.512 36.2686 69.3864 40.1085 69.6417 44.5354C69.636 44.651 69.636 44.7668 69.6417 44.8825V47.9987C69.6417 48.9779 70.0493 49.9171 70.7749 50.6095C71.5005 51.3019 72.4846 51.6909 73.5107 51.6909V60.807C71.8316 62.066 69.9706 62.7675 69.6417 62.7675C68.7673 62.7731 67.9207 63.0613 67.2399 63.5849C66.559 64.1086 66.0842 64.8369 65.8927 65.6511C65.1034 69.2178 63.3469 72.2196 61.1803 74.7672C60.8548 75.1459 60.6107 75.582 60.4619 76.0507C60.3131 76.5194 60.2625 77.0115 60.313 77.4989C60.3635 77.9862 60.5141 78.4593 60.7561 78.8912C60.9982 79.323 61.327 79.7051 61.7239 80.0157C62.1207 80.3262 62.5777 80.5592 63.0688 80.7012C63.56 80.8432 64.0756 80.8915 64.5863 80.8433C65.097 80.7951 65.5928 80.6514 66.0453 80.4204C66.4978 80.1894 66.8982 79.8756 67.2236 79.4969C69.545 76.7684 71.0849 73.198 72.3036 69.4615C74.6025 68.9076 76.7477 67.8833 78.5907 66.4597H81.2487C80.3008 71.1895 78.5559 74.7598 76.7761 77.3074C74.2613 80.9073 72.0947 82.1664 71.9399 82.2661C71.8277 82.3215 70.4542 83.0414 66.4962 83.8833C63.4784 84.522 59.1336 85.2051 53.3185 85.4968C52.5408 81.3799 48.0218 78.2305 42.5588 78.2305C36.5464 78.2305 31.6754 82.0519 31.6754 86.7669C31.6754 91.4818 36.5503 95.3069 42.5588 95.3069C46.3156 95.3069 49.67 93.771 51.6277 91.4966C58.7854 91.2234 64.2251 90.4406 67.951 89.6505C72.5396 88.6794 74.8378 87.5755 74.8378 87.5755C74.9659 87.5064 75.0888 87.4286 75.2053 87.3429C75.2053 87.3429 78.6565 85.1091 81.8522 80.5381C84.4367 76.8385 86.998 71.4737 87.8995 64.3847C90.7161 62.3725 92.4919 59.0827 92.4919 55.3831V47.9987C92.4919 41.8807 87.6557 36.9221 81.2487 36.9221H80.6451C80.6606 11.084 62.577 0 42.5588 0ZM76.0488 36.4605C76.1648 36.6156 76.3002 36.7559 76.4124 36.9221H76.0488C76.0178 36.7707 76.0836 36.6119 76.0488 36.4605ZM27.0829 44.3065C25.0307 44.3065 23.0625 45.0845 21.6113 46.4693C20.1602 47.8542 19.3449 49.7324 19.3449 51.6909C19.3449 53.6494 20.1602 55.5276 21.6113 56.9125C23.0625 58.2973 25.0307 59.0753 27.0829 59.0753C29.1351 59.0753 31.1033 58.2973 32.5545 56.9125C34.0056 55.5276 34.8209 53.6494 34.8209 51.6909C34.8209 49.7324 34.0056 47.8542 32.5545 46.4693C31.1033 45.0845 29.1351 44.3065 27.0829 44.3065ZM58.0348 44.3065C55.9825 44.3065 54.0144 45.0845 52.5632 46.4693C51.112 47.8542 50.2968 49.7324 50.2968 51.6909C50.2968 53.6494 51.112 55.5276 52.5632 56.9125C54.0144 58.2973 55.9825 59.0753 58.0348 59.0753C60.087 59.0753 62.0552 58.2973 63.5063 56.9125C64.9575 55.5276 65.7727 53.6494 65.7727 51.6909C65.7727 49.7324 64.9575 47.8542 63.5063 46.4693C62.0552 45.0845 60.087 44.3065 58.0348 44.3065Z" fill="#9B2D30"/>
</svg>
