<svg width="77" height="90" viewBox="0 0 77 90" fill="none" xmlns="http://www.w3.org/2000/svg">
<path d="M77 63.2812V4.21875C77 1.88086 75.1609 0 72.875 0H16.5C7.39062 0 0 7.55859 0 16.875V73.125C0 82.4414 7.39062 90 16.5 90H72.875C75.1609 90 77 88.1191 77 85.7812V82.9688C77 81.6504 76.3984 80.4551 75.4703 79.6816C74.7484 76.9746 74.7484 69.2578 75.4703 66.5508C76.3984 65.7949 77 64.5996 77 63.2812ZM22 23.5547C22 22.9746 22.4641 22.5 23.0312 22.5H59.4688C60.0359 22.5 60.5 22.9746 60.5 23.5547V27.0703C60.5 27.6504 60.0359 28.125 59.4688 28.125H23.0312C22.4641 28.125 22 27.6504 22 27.0703V23.5547ZM22 34.8047C22 34.2246 22.4641 33.75 23.0312 33.75H59.4688C60.0359 33.75 60.5 34.2246 60.5 34.8047V38.3203C60.5 38.9004 60.0359 39.375 59.4688 39.375H23.0312C22.4641 39.375 22 38.9004 22 38.3203V34.8047ZM65.5531 78.75H16.5C13.4578 78.75 11 76.2363 11 73.125C11 70.0312 13.475 67.5 16.5 67.5H65.5531C65.2266 70.5059 65.2266 75.7441 65.5531 78.75Z" fill="#9B2D30"/>
</svg>
