<?xml version="1.0" encoding="UTF-8" standalone="no"?><!-- Generator: Gravit.io --><svg xmlns="http://www.w3.org/2000/svg" xmlns:xlink="http://www.w3.org/1999/xlink" style="isolation:isolate" viewBox="0 0 77 77" width="77pt" height="77pt"><defs><clipPath id="_clipPath_dwgGfnbO6mUe19x178WwgERkdE4EDW5Z"><rect width="77" height="77"/></clipPath></defs><g clip-path="url(#_clipPath_dwgGfnbO6mUe19x178WwgERkdE4EDW5Z)"><path d=" M 11.692 11.691 C -3.342 26.725 -3.342 51.107 11.692 66.143 C 26.727 81.18 51.103 81.173 66.137 66.138 C 81.172 51.104 81.179 26.728 66.142 11.693 C 51.108 -3.341 26.732 -3.341 11.692 11.693 L 11.692 11.691 Z  M 64.338 13.498 C 66.403 15.59 68.206 17.927 69.706 20.456 L 59.291 30.87 C 58.195 28.078 56.534 25.542 54.411 23.422 C 52.29 21.297 49.753 19.635 46.958 18.539 L 57.372 8.125 C 59.905 9.625 62.245 11.43 64.34 13.498 L 64.338 13.498 Z  M 25.233 52.602 C 17.678 45.042 17.676 32.79 25.228 25.227 C 32.793 17.679 45.039 17.679 52.604 25.227 C 60.146 32.792 60.146 45.034 52.604 52.6 C 45.042 60.15 32.795 60.152 25.231 52.605 L 25.233 52.602 Z  M 13.494 64.339 C 11.427 62.243 9.622 59.903 8.121 57.37 L 18.535 46.956 C 20.762 52.597 25.228 57.063 30.869 59.29 L 20.45 69.704 C 17.974 68.224 15.626 66.462 13.492 64.336 L 13.494 64.339 Z  M 20.458 8.117 L 30.877 18.536 C 25.232 20.756 20.764 25.223 18.543 30.868 L 8.124 20.453 C 9.604 17.977 11.365 15.629 13.497 13.49 C 15.591 11.423 17.93 9.619 20.46 8.117 L 20.458 8.117 Z  M 57.377 69.704 L 46.958 59.285 C 52.604 57.068 57.072 52.601 59.291 46.956 L 69.711 57.37 C 68.23 59.846 66.469 62.2 64.338 64.339 C 62.243 66.404 59.905 68.207 57.375 69.707 L 57.377 69.704 Z " fill="rgb(128,0,0)"/><rect x="0" y="0" width="77" height="77" transform="matrix(1,0,0,1,0,0)" fill="none"/></g></svg>