<svg width="124" height="90" viewBox="0 0 124 90" fill="none" xmlns="http://www.w3.org/2000/svg">
<path d="M94.5542 33.749H65.1043V43.5936C65.1043 50.5727 58.8462 56.2509 51.1543 56.2509C43.4625 56.2509 37.2044 50.5727 37.2044 43.5936V22.2168L24.63 29.0729C20.8906 31.0945 18.6044 34.7687 18.6044 38.7065V47.0217L3.10441 55.1434C0.140044 56.6904 -0.886829 60.136 0.837543 62.8257L16.3375 87.1911C18.0425 89.8807 21.84 90.7949 24.8044 89.2479L44.8381 78.7528H71.3043C78.1437 78.7528 83.7043 73.7075 83.7043 67.5019H86.8043C90.2336 67.5019 93.0042 64.988 93.0042 61.8764V50.6255H94.5542C97.1311 50.6255 99.2042 48.7445 99.2042 46.4064V37.9682C99.2042 35.6301 97.1311 33.749 94.5542 33.749ZM123.171 27.1743L107.671 2.80893C105.966 0.119254 102.169 -0.794885 99.2042 0.75212L79.1705 11.2471H59.3693C57.0443 11.2471 54.7774 11.8449 52.8012 12.9524L46.3106 16.6265C44.4893 17.6461 43.4043 19.4568 43.4043 21.3906V43.5936C43.4043 47.4787 46.8725 50.6255 51.1543 50.6255C55.4362 50.6255 58.9043 47.4787 58.9043 43.5936V28.1236H94.5542C100.541 28.1236 105.404 32.5361 105.404 37.9682V42.9783L120.904 34.8566C123.869 33.292 124.876 29.864 123.171 27.1743V27.1743Z" fill="#9B2D30"/>
</svg>
